<svg viewBox="0 0 16 16" fill='currentColor' xmlns="http://www.w3.org/2000/svg">
<g id="sun">
<g id="Solid">
<path d="M8.6665 1.33335C8.6665 0.965164 8.36803 0.666687 7.99984 0.666687C7.63165 0.666687 7.33317 0.965164 7.33317 1.33335V2.66669C7.33317 3.03488 7.63165 3.33335 7.99984 3.33335C8.36803 3.33335 8.6665 3.03488 8.6665 2.66669V1.33335Z" />
<path d="M8.6665 13.3334C8.6665 12.9652 8.36803 12.6667 7.99984 12.6667C7.63165 12.6667 7.33317 12.9652 7.33317 13.3334V14.6667C7.33317 15.0349 7.63165 15.3334 7.99984 15.3334C8.36803 15.3334 8.6665 15.0349 8.6665 14.6667V13.3334Z" />
<path d="M0.666504 8.00002C0.666504 7.63183 0.964981 7.33335 1.33317 7.33335H2.6665C3.03469 7.33335 3.33317 7.63183 3.33317 8.00002C3.33317 8.36821 3.03469 8.66669 2.6665 8.66669H1.33317C0.964981 8.66669 0.666504 8.36821 0.666504 8.00002Z" />
<path d="M3.73784 2.79522C3.47749 2.53487 3.05538 2.53487 2.79503 2.79522C2.53468 3.05557 2.53468 3.47768 2.79503 3.73803L3.73784 4.68084C3.99819 4.94118 4.4203 4.94118 4.68065 4.68084C4.941 4.42049 4.941 3.99838 4.68065 3.73803L3.73784 2.79522Z" />
<path d="M13.2047 2.79522C13.465 3.05557 13.465 3.47768 13.2047 3.73803L12.2619 4.68084C12.0015 4.94118 11.5794 4.94118 11.319 4.68084C11.0587 4.42049 11.0587 3.99838 11.319 3.73803L12.2619 2.79522C12.5222 2.53487 12.9443 2.53487 13.2047 2.79522Z" />
<path d="M4.68065 12.2647C4.941 12.0044 4.941 11.5823 4.68065 11.3219C4.4203 11.0616 3.99819 11.0616 3.73784 11.3219L2.79503 12.2647C2.53468 12.5251 2.53468 12.9472 2.79503 13.2075C3.05538 13.4679 3.47749 13.4679 3.73784 13.2075L4.68065 12.2647Z" />
<path d="M11.319 11.3219C11.5794 11.0616 12.0015 11.0616 12.2619 11.3219L13.2047 12.2647C13.465 12.5251 13.465 12.9472 13.2047 13.2075C12.9443 13.4679 12.5222 13.4679 12.2619 13.2075L11.319 12.2647C11.0587 12.0044 11.0587 11.5823 11.319 11.3219Z" />
<path d="M13.3332 7.33335C12.965 7.33335 12.6665 7.63183 12.6665 8.00002C12.6665 8.36821 12.965 8.66669 13.3332 8.66669H14.6665C15.0347 8.66669 15.3332 8.36821 15.3332 8.00002C15.3332 7.63183 15.0347 7.33335 14.6665 7.33335H13.3332Z"/>
<path d="M7.99984 4.00002C5.7907 4.00002 3.99984 5.79088 3.99984 8.00002C3.99984 10.2092 5.7907 12 7.99984 12C10.209 12 11.9998 10.2092 11.9998 8.00002C11.9998 5.79088 10.209 4.00002 7.99984 4.00002Z"/>
</g>
</g>
</svg>
